<?xml version="1.0" standalone="no"?>
<!DOCTYPE svg PUBLIC "-//W3C//DTD SVG 20010904//EN"
 "http://www.w3.org/TR/2001/REC-SVG-20010904/DTD/svg10.dtd">
<svg version="1.0" xmlns="http://www.w3.org/2000/svg"
 width="600.000000pt" height="600.000000pt" viewBox="0 0 600.000000 600.000000"
 preserveAspectRatio="xMidYMid meet">
<metadata>
Created by potrace 1.11, written by Peter Selinger 2001-2013
</metadata>
<g transform="translate(0.000000,600.000000) scale(0.100000,-0.100000)"
fill="#000000" stroke="none">
<path d="M3725 5598 c-44 -15 -82 -28 -85 -29 -52 -14 -169 -54 -192 -66 -24
-12 -68 -73 -53 -73 3 0 -1 -14 -10 -30 -16 -31 -125 -464 -125 -496 0 -11 10
-35 21 -54 39 -63 79 -140 105 -203 24 -54 27 -78 30 -192 3 -120 -7 -206 -39
-350 -32 -140 -105 -363 -158 -482 -10 -24 -19 -45 -19 -49 0 -14 -122 -249
-174 -334 -108 -176 -219 -305 -410 -475 -44 -38 -87 -77 -95 -85 -126 -117
-349 -291 -482 -375 -97 -62 -379 -208 -549 -284 -41 -19 -106 -49 -145 -67
-38 -18 -196 -85 -350 -149 -154 -64 -286 -122 -293 -129 -13 -13 -24 -48 -70
-223 -25 -97 -25 -104 -10 -136 14 -30 33 -41 145 -92 218 -99 362 -152 523
-193 136 -36 184 -47 290 -67 141 -27 446 -28 575 -1 174 36 504 150 670 231
l50 25 -40 -35 c-55 -49 -265 -187 -415 -275 -178 -104 -171 -90 -169 -289 0
-96 5 -174 12 -188 24 -54 43 -57 412 -59 314 -2 428 4 585 30 19 3 53 8 75
11 368 57 632 168 886 373 263 212 592 617 747 917 183 355 342 866 396 1275
29 213 29 574 1 710 -3 14 -8 39 -10 55 -14 74 -66 260 -100 351 -84 225 -188
401 -312 529 -104 108 -140 132 -593 398 -47 27 -141 92 -210 143 l-126 93
-53 158 c-30 88 -63 168 -75 180 -31 33 -71 33 -161 1z m84 -318 c41 -122 46
-132 90 -168 95 -78 269 -200 366 -257 220 -128 403 -240 450 -275 128 -95
239 -251 325 -455 18 -44 39 -93 46 -110 12 -30 55 -178 70 -245 4 -19 8 -37
9 -40 1 -3 5 -25 9 -50 5 -25 10 -53 12 -64 20 -108 19 -450 -1 -556 -2 -12
-7 -48 -11 -79 -45 -407 -261 -1030 -472 -1361 -35 -56 -154 -220 -182 -252
-8 -9 -19 -23 -25 -30 -45 -61 -148 -173 -250 -273 -228 -224 -434 -346 -705
-416 -57 -14 -166 -35 -395 -74 -47 -9 -641 -15 -679 -8 -25 5 -26 8 -26 72
l0 67 108 62 c265 151 400 253 584 442 79 80 152 157 163 171 11 13 40 49 65
79 25 30 47 57 50 60 51 50 317 442 390 577 12 21 31 54 42 73 218 369 389
845 433 1199 4 30 9 63 11 75 3 12 7 113 9 226 3 208 -9 367 -41 535 -8 44
-18 91 -20 105 -9 44 -74 228 -106 298 -75 163 -162 279 -310 409 -25 22 -61
80 -116 191 l-80 159 61 20 c34 12 67 22 72 22 6 1 30 -57 54 -129z m-235
-236 c52 -103 63 -117 158 -205 140 -129 210 -243 283 -458 65 -191 90 -375
90 -661 0 -236 -7 -308 -50 -525 -23 -115 -97 -346 -160 -495 -165 -394 -535
-993 -656 -1062 -24 -13 -102 -58 -174 -100 -71 -41 -174 -98 -227 -126 -210
-109 -568 -239 -738 -267 -19 -3 -48 -8 -64 -11 -39 -8 -249 -8 -316 0 -262
33 -573 124 -826 242 -84 40 -82 33 -54 133 10 36 12 37 218 120 455 185 906
402 1112 535 70 46 262 189 313 235 18 16 91 79 162 141 235 203 401 381 498
532 209 328 364 717 443 1115 22 109 26 340 7 427 -13 65 -77 214 -120 281
-19 30 -19 31 3 120 12 50 25 103 28 119 4 15 8 27 10 25 2 -2 29 -54 60 -115z"/>
<path d="M4227 1678 c-20 -7 -37 -28 -59 -71 -115 -229 -240 -357 -448 -462
-89 -45 -110 -68 -110 -121 0 -37 51 -84 89 -84 39 0 186 73 271 135 90 65
217 196 271 280 55 84 119 212 119 237 0 31 -27 73 -55 86 -30 14 -40 14 -78
0z"/>
<path d="M3359 1001 c-52 -53 -33 -131 37 -150 40 -11 71 -3 95 25 78 90 -48
209 -132 125z"/>
<path d="M3311 2342 c-34 -5 -53 -27 -101 -117 -107 -202 -232 -325 -429 -425
-85 -42 -100 -55 -107 -96 -7 -41 13 -81 52 -99 40 -19 52 -16 149 33 221 110
384 272 500 496 53 102 57 141 20 179 -28 27 -48 34 -84 29z"/>
<path d="M2445 1676 c-84 -36 -65 -158 26 -172 99 -16 146 118 60 169 -34 20
-46 21 -86 3z"/>
</g>
</svg>
