<svg xmlns:dc="http://purl.org/dc/elements/1.1/" xmlns:cc="http://creativecommons.org/ns#" xmlns:rdf="http://www.w3.org/1999/02/22-rdf-syntax-ns#" xmlns:svg="http://www.w3.org/2000/svg" xmlns="http://www.w3.org/2000/svg" xmlns:sodipodi="http://sodipodi.sourceforge.net/DTD/sodipodi-0.dtd" xmlns:inkscape="http://www.inkscape.org/namespaces/inkscape" viewBox="0 0 32 40" version="1.1" x="0px" y="0px"><g transform="translate(0,-1020.3622)"><path style="color:#000000;font-style:normal;font-variant:normal;font-weight:normal;font-stretch:normal;font-size:medium;line-height:normal;font-family:sans-serif;text-indent:0;text-align:start;text-decoration:none;text-decoration-line:none;text-decoration-style:solid;text-decoration-color:#000000;letter-spacing:normal;word-spacing:normal;text-transform:none;direction:ltr;block-progression:tb;writing-mode:lr-tb;baseline-shift:baseline;text-anchor:start;white-space:normal;clip-rule:nonzero;display:inline;overflow:visible;visibility:visible;opacity:1;isolation:auto;mix-blend-mode:normal;color-interpolation:sRGB;color-interpolation-filters:linearRGB;solid-color:#000000;solid-opacity:1;fill:#000000;fill-opacity:1;fill-rule:evenodd;stroke:none;stroke-width:0.99999994;stroke-linecap:round;stroke-linejoin:round;stroke-miterlimit:4;stroke-dasharray:none;stroke-dashoffset:0;stroke-opacity:1;color-rendering:auto;image-rendering:auto;shape-rendering:auto;text-rendering:auto;enable-background:accumulate" d="m 20.361328,1022.3633 a 0.50004997,0.50004997 0 0 0 -0.128906,0.023 l -1.783203,0.586 a 0.50004997,0.50004997 0 0 0 -0.291016,0.7011 l 1.189453,2.3418 a 0.50004997,0.50004997 0 0 0 0.132813,0.1621 c 0,0 0.209936,0.1702 0.457031,0.3946 0.247095,0.2243 0.5328,0.5197 0.630859,0.666 0.546697,0.8156 0.925288,1.7738 1.115235,2.7441 0.324777,1.6592 0.324777,3.4151 0,5.0742 -0.388122,1.9827 -1.275631,3.9022 -2.322266,5.6973 -1.103902,1.8933 -2.464913,3.6791 -4.070312,5.1504 -0.803055,0.736 -3.03125,1.9902 -3.03125,1.9902 A 0.50004997,0.50004997 0 0 0 12,1048.3379 l 0.01758,1.5039 a 0.50004997,0.50004997 0 0 0 0.472656,0.4922 c 0,0 2.85134,0.17 4.400391,-0.053 1.434209,-0.2061 2.991972,-0.4519 4.34375,-1.2343 1.792092,-1.0375 3.155055,-2.6465 4.318359,-4.2344 0.820138,-1.1194 1.378941,-2.3844 1.847657,-3.6309 0.578952,-1.5397 1.013192,-3.1522 1.21875,-4.7949 0.149035,-1.191 0.199712,-2.4336 -0.002,-3.6562 -0.209806,-1.2719 -0.63187,-2.5264 -1.244141,-3.666 -0.327941,-0.6104 -0.761,-1.1658 -1.263672,-1.6348 a 0.50004997,0.50004997 0 0 0 -0.002,0 c -0.552792,-0.5157 -1.186699,-0.8238 -1.714844,-1.1563 -0.56029,-0.3527 -1.122961,-0.6275 -1.609375,-0.9492 -0.446506,-0.2953 -1.241179,-0.9109 -1.376953,-1.0156 l -0.542969,-1.6074 a 0.50004997,0.50004997 0 0 0 -0.501953,-0.3379 z m -0.287109,1.1289 0.435547,1.2871 a 0.50004997,0.50004997 0 0 0 0.167968,0.2344 c 0,0 0.98618,0.7685 1.554688,1.1445 0.558428,0.3693 1.127082,0.6463 1.626953,0.9609 0.586477,0.3692 1.15618,0.6603 1.566406,1.043 0.425215,0.3968 0.793775,0.8676 1.066407,1.375 0.557543,1.0378 0.944716,2.1915 1.136718,3.3555 0.179523,1.0884 0.139769,2.2365 -0.002,3.3691 -0.194053,1.5508 -0.60634,3.0903 -1.162109,4.5684 -0.454368,1.2083 -0.98321,2.3886 -1.71875,3.3926 -1.132454,1.5457 -2.419831,3.0374 -4.011719,3.9589 -1.136808,0.658 -2.565965,0.9052 -3.986328,1.1094 -1.146833,0.1649 -3.210653,0.062 -3.736328,0.039 l -0.0078,-0.7305 c 0.30575,-0.1668 2.009105,-1.0829 2.962891,-1.957 1.694813,-1.5533 3.113665,-3.4191 4.259765,-5.3848 1.078762,-1.8502 2.01781,-3.8639 2.4375,-6.0078 0.350253,-1.7893 0.350253,-3.6717 0,-5.4609 -0.213955,-1.093 -0.636553,-2.1689 -1.265624,-3.1075 -0.210713,-0.3143 -0.518424,-0.6038 -0.789063,-0.8496 -0.222488,-0.202 -0.349537,-0.3043 -0.412109,-0.3554 l -0.882813,-1.7364 0.759766,-0.248 z"/><path style="color:#000000;font-style:normal;font-variant:normal;font-weight:normal;font-stretch:normal;font-size:medium;line-height:normal;font-family:sans-serif;text-indent:0;text-align:start;text-decoration:none;text-decoration-line:none;text-decoration-style:solid;text-decoration-color:#000000;letter-spacing:normal;word-spacing:normal;text-transform:none;direction:ltr;block-progression:tb;writing-mode:lr-tb;baseline-shift:baseline;text-anchor:start;white-space:normal;clip-rule:nonzero;display:inline;overflow:visible;visibility:visible;opacity:1;isolation:auto;mix-blend-mode:normal;color-interpolation:sRGB;color-interpolation-filters:linearRGB;solid-color:#000000;solid-opacity:1;fill:#000000;fill-opacity:1;fill-rule:evenodd;stroke:none;stroke-width:0.99999994;stroke-linecap:round;stroke-linejoin:round;stroke-miterlimit:4;stroke-dasharray:none;stroke-dashoffset:0;stroke-opacity:1;color-rendering:auto;image-rendering:auto;shape-rendering:auto;text-rendering:auto;enable-background:accumulate" d="m 18.417969,1023.3633 a 0.50004997,0.50004997 0 0 0 -0.451172,0.3867 l -0.564453,2.2969 a 0.50004997,0.50004997 0 0 0 0.0625,0.3867 c 0,0 0.160393,0.254 0.333984,0.5801 0.173591,0.3261 0.351869,0.7438 0.384766,0.9238 0.154083,0.8431 0.0113,1.7874 -0.216797,2.7031 -0.442459,1.7765 -1.17574,3.5124 -2.189453,5.0117 -0.69967,1.0348 -1.727421,1.8798 -2.744141,2.7754 a 0.50004997,0.50004997 0 0 0 0,0 c -0.698852,0.6157 -1.4266,1.19 -2.197265,1.6738 -1.0343623,0.6494 -2.1812854,1.156 -3.3378911,1.6934 -1.1482782,0.5335 -3.5722656,1.5097 -3.5722657,1.5097 a 0.50004997,0.50004997 0 0 0 -0.2949218,0.334 l -0.3632813,1.3516 a 0.50004997,0.50004997 0 0 0 0.2675781,0.582 c 0,0 1.8152177,0.8816 2.9121094,1.1797 1.2986256,0.3525 2.6913032,0.6889 4.1230464,0.5899 1.474634,-0.1024 2.839476,-0.6597 4.113282,-1.1836 1.191192,-0.4898 3.1875,-1.7305 3.1875,-1.7305 a 0.50004997,0.50004997 0 1 0 -0.523438,-0.8516 c 0,0 -2.050693,1.2483 -3.042968,1.6563 -1.269648,0.5222 -2.539825,1.0256 -3.802735,1.1133 -1.2278247,0.085 -2.5162502,-0.2121 -3.7929686,-0.5586 -0.7443245,-0.2023 -1.961865,-0.7752 -2.3632813,-0.961 l 0.1875,-0.6933 c 0.2775724,-0.1119 2.253463,-0.9051 3.3867188,-1.4317 1.1441582,-0.5316 2.3303611,-1.0507 3.4472661,-1.7519 0.832792,-0.5228 1.601008,-1.1326 2.326171,-1.7715 0.997142,-0.8784 2.102596,-1.7696 2.91211,-2.9668 1.088338,-1.6097 1.863806,-3.4502 2.332031,-5.3301 0.242512,-0.9736 0.426578,-2.0519 0.230469,-3.125 -0.0786,-0.4301 -0.293816,-0.8532 -0.486328,-1.2148 -0.135066,-0.2538 -0.195348,-0.3458 -0.259766,-0.4512 l 0.515625,-2.1035 a 0.50004997,0.50004997 0 0 0 -0.519531,-0.625 z"/><path style="color:#000000;font-style:normal;font-variant:normal;font-weight:normal;font-stretch:normal;font-size:medium;line-height:normal;font-family:sans-serif;text-indent:0;text-align:start;text-decoration:none;text-decoration-line:none;text-decoration-style:solid;text-decoration-color:#000000;letter-spacing:normal;word-spacing:normal;text-transform:none;direction:ltr;block-progression:tb;writing-mode:lr-tb;baseline-shift:baseline;text-anchor:start;white-space:normal;clip-rule:nonzero;display:inline;overflow:visible;visibility:visible;opacity:1;isolation:auto;mix-blend-mode:normal;color-interpolation:sRGB;color-interpolation-filters:linearRGB;solid-color:#000000;solid-opacity:1;fill:#000000;fill-opacity:1;fill-rule:evenodd;stroke:none;stroke-width:0.99999994px;stroke-linecap:round;stroke-linejoin:round;stroke-miterlimit:4;stroke-dasharray:none;stroke-dashoffset:0;stroke-opacity:1;color-rendering:auto;image-rendering:auto;shape-rendering:auto;text-rendering:auto;enable-background:accumulate" d="m 17.722656,1039.8633 a 0.50004997,0.50004997 0 0 0 -0.423828,0.2832 l -0.201172,0.4062 c -0.46368,0.9367 -1.21963,1.6926 -2.15625,2.1563 l -0.40625,0.2012 a 0.50004997,0.50004997 0 1 0 0.44336,0.8964 l 0.40625,-0.2011 c 1.132442,-0.5607 2.048752,-1.477 2.609375,-2.6094 l 0.201171,-0.4063 a 0.50004997,0.50004997 0 0 0 -0.472656,-0.7265 z"/><path style="opacity:1;fill:#000000;fill-opacity:1;stroke:none;stroke-width:0.26458335;stroke-linecap:round;stroke-linejoin:round;stroke-miterlimit:4;stroke-dasharray:none;stroke-dashoffset:0;stroke-opacity:1" d="m 12.750002,1043.8622 a 0.50000006,0.50000006 0 0 0 0.5,0.5 0.50000006,0.50000006 0 0 0 0.5,-0.5 0.50000006,0.50000006 0 0 0 -0.5,-0.5 0.50000006,0.50000006 0 0 0 -0.5,0.5 z"/><path style="color:#000000;font-style:normal;font-variant:normal;font-weight:normal;font-stretch:normal;font-size:medium;line-height:normal;font-family:sans-serif;text-indent:0;text-align:start;text-decoration:none;text-decoration-line:none;text-decoration-style:solid;text-decoration-color:#000000;letter-spacing:normal;word-spacing:normal;text-transform:none;direction:ltr;block-progression:tb;writing-mode:lr-tb;baseline-shift:baseline;text-anchor:start;white-space:normal;clip-rule:nonzero;display:inline;overflow:visible;visibility:visible;opacity:1;isolation:auto;mix-blend-mode:normal;color-interpolation:sRGB;color-interpolation-filters:linearRGB;solid-color:#000000;solid-opacity:1;fill:#000000;fill-opacity:1;fill-rule:evenodd;stroke:none;stroke-width:0.99999994px;stroke-linecap:round;stroke-linejoin:round;stroke-miterlimit:4;stroke-dasharray:none;stroke-dashoffset:0;stroke-opacity:1;color-rendering:auto;image-rendering:auto;shape-rendering:auto;text-rendering:auto;enable-background:accumulate" d="m 22.722656,1043.3633 a 0.50004997,0.50004997 0 0 0 -0.423828,0.2832 l -0.201172,0.4062 c -0.463696,0.9366 -1.219644,1.6926 -2.15625,2.1563 l -0.40625,0.2012 a 0.50004997,0.50004997 0 1 0 0.44336,0.8964 l 0.40625,-0.2011 c 1.132424,-0.5606 2.048733,-1.477 2.609375,-2.6094 l 0.201171,-0.4063 a 0.50004997,0.50004997 0 0 0 -0.472656,-0.7265 z"/><path style="opacity:1;fill:#000000;fill-opacity:1;stroke:none;stroke-width:0.26458335;stroke-linecap:round;stroke-linejoin:round;stroke-miterlimit:4;stroke-dasharray:none;stroke-dashoffset:0;stroke-opacity:1" d="m 17.750002,1047.3622 a 0.50000006,0.50000006 0 0 0 0.5,0.5 0.50000006,0.50000006 0 0 0 0.5,-0.5 0.50000006,0.50000006 0 0 0 -0.5,-0.5 0.50000006,0.50000006 0 0 0 -0.5,0.5 z"/></g><text x="0" y="47" fill="#000000" font-size="5px" font-weight="bold" font-family="'Helvetica Neue', Helvetica, Arial-Unicode, Arial, Sans-serif">Created by anbileru adaleru</text><text x="0" y="52" fill="#000000" font-size="5px" font-weight="bold" font-family="'Helvetica Neue', Helvetica, Arial-Unicode, Arial, Sans-serif">from the Noun Project</text></svg>